<?xml version="1.0" encoding="utf-8"?>
<!-- Generator: Adobe Illustrator 17.0.0, SVG Export Plug-In . SVG Version: 6.00 Build 0)  -->
<!DOCTYPE svg PUBLIC "-//W3C//DTD SVG 1.1//EN" "http://www.w3.org/Graphics/SVG/1.1/DTD/svg11.dtd">
<svg version="1.1" id="Calque_1" xmlns="http://www.w3.org/2000/svg" x="0px"
	 y="0px"
	 width="140.94px" height="155.91px" viewBox="0 0 240.94 155.91" enable-background="new 0 0 240.94 155.91"
	 xml:space="preserve">
<g>
	<g>
		<path fill="#FCC10A" d="M140.879,66.33h-7.474l-10.977,10.977c-0.447,0.447-0.813,0.296-0.813-0.337V66.336H109.83l-7.827,7.826
			c-0.447,0.448-0.447,1.18,0,1.627l18.804,18.804c0.447,0.448,0.813,0.296,0.813-0.337V83.621h19.258c0.633,0,1.15-0.517,1.15-1.15
			v-14.99C142.029,66.848,141.512,66.33,140.879,66.33z"/>
        <path fill="#FCC10A" d="M121.621,55.697V66.33h11.784l7.827-7.827c0.447-0.447,0.447-1.179,0-1.627l-18.804-18.802
			c-0.447-0.448-0.813-0.296-0.813,0.337v10.634h-19.258c-0.633,0-1.15,0.518-1.15,1.15v14.99c0,0.633,0.518,1.15,1.15,1.15h7.474
			l10.977-10.976C121.255,54.912,121.621,55.064,121.621,55.697z"/>
	</g>
</g>
</svg>