<?xml version="1.0" encoding="UTF-8"?>
<!DOCTYPE svg PUBLIC "-//W3C//DTD SVG 1.1//EN" "http://www.w3.org/Graphics/SVG/1.1/DTD/svg11.dtd">
<!-- Creator: CorelDRAW 2021 (64-Bit) -->
<svg xmlns="http://www.w3.org/2000/svg" xml:space="preserve" width="10mm" height="10mm" version="1.1"
     style="shape-rendering:geometricPrecision; text-rendering:geometricPrecision; image-rendering:optimizeQuality; fill-rule:evenodd; clip-rule:evenodd"
     viewBox="0 0 1000 1000"
>
 <defs>
  <style type="text/css">
   <![CDATA[
    .str1 {stroke:#F2ED82;stroke-width:26.46;stroke-linecap:round;stroke-linejoin:round;stroke-miterlimit:22.9256}
    .str0 {stroke:#0E1420;stroke-width:20;stroke-linecap:round;stroke-linejoin:round;stroke-miterlimit:22.9256}
    .fil1 {fill:none}
    .fil2 {fill:none;fill-rule:nonzero}
    .fil0 {fill:#0E1420}
   ]]>
  </style>
 </defs>
    <g id="Layer_x0020_1">
  <metadata id="CorelCorpID_0Corel-Layer"/>
        <path class="fil0 str0"
              d="M178.09 4.01c199.93,0 399.87,0 599.8,0 169.4,7.2 223.99,86.7 218.55,203.98l0 599.81c-17.57,129.27 -94.94,191.27 -216.12,203.98 -199.93,0 -399.87,0 -599.8,0 -114.22,-3.42 -192.59,-53.2 -196.7,-199.13l0 -607.08c19.75,-124.83 83.87,-193.25 194.27,-201.56z"/>
        <path class="fil1 str1"
              d="M931.29 570.25c-29.09,228.36 -215.94,404.52 -442.11,404.52 -194,0 -359.06,-129.59 -420.46,-310.56"/>
        <path class="fil1 str1" d="M889 300.85c16.53,34.89 29.03,72.25 36.83,111.42"/>
        <path class="fil1 str1"
              d="M48.88 432.89c34.33,-222.08 218.39,-391.66 440.3,-391.66 127.81,0 243.07,56.26 324.39,146.4"/>
        <path class="fil1 str1"
              d="M874.94 567.6c-28.58,194.65 -189.31,343.7 -383.32,343.7 -159.86,0 -297.23,-102.19 -356.57,-246.49"/>
        <path class="fil1 str1" d="M852.42 356.2c6.94,18.38 12.64,37.42 16.99,57"/>
        <path class="fil1 str1"
              d="M109.95 433.67c32.67,-188.7 191.08,-333.73 381.67,-334.09 116.1,-0.22 220.3,53.19 291.39,137.87"/>
        <polyline class="fil1 str1" points="311.18,615.98 529.2,414.84 721.13,414.84 908.01,194.82 "/>
        <line class="fil1 str1" x1="37.76" y1="607.81" x2="311.18" y2="615.98"/>
        <line class="fil1 str1" x1="234.42" y1="664.99" x2="234.42" y2="745.11"/>
        <line class="fil1 str1" x1="409.41" y1="643.63" x2="409.41" y2="853.26"/>
        <line class="fil1 str1" x1="587" y1="577.59" x2="587" y2="853.26"/>
        <polyline class="fil1 str1" points="587,533.32 587,478.05 769.93,478.06 "/>
        <line class="fil1 str1" x1="769.93" y1="478.06" x2="769.93" y2="664.99"/>
        <polyline class="fil1 str1" points="234.42,559.27 234.42,327.17 409.41,327.17 409.41,458.03 "/>
        <polyline class="fil1 str1" points="409.41,327.17 409.41,236.38 587,236.38 "/>
        <line class="fil1 str1" x1="587" y1="236.38" x2="587" y2="369.9"/>
        <polyline class="fil2 str1" points="872.68,566.11 840.74,566.11 904.63,458.03 968.53,566.11 936.58,566.11 "/>
        <polyline class="fil2 str1" points="872.68,566.11 840.74,566.11 904.63,458.03 968.53,566.11 936.58,566.11 "/>
        <polyline class="fil2 str1" points="111.31,434.65 143.25,434.21 80.85,543.16 15.47,435.97 47.41,435.53 "/>
        <polyline class="fil1 str1" points="852.69,183.23 926.02,176.36 926.02,243.58 "/>
 </g>
</svg>
